<svg width="24" height="24" viewBox="0 0 24 24" fill="none" xmlns="http://www.w3.org/2000/svg">
<g clip-path="url(#clip0_37_6236)">
<path d="M12 21.3332C12.2886 21.3332 12.5773 21.2676 12.8357 21.1366L13.0574 21.0242C15.595 19.7381 17.808 18.6164 19.2874 16.4041C20.6675 14.3402 21.3725 11.3928 21.3317 6.59935C21.3281 6.17786 21.1162 5.77835 20.7507 5.50377C20.3853 5.2292 19.9019 5.10642 19.4252 5.16707C18.0566 5.34121 16.9846 5.2947 16.0426 5.00261C15.0921 4.70789 14.204 4.14191 13.2547 3.17472C12.9403 2.85429 12.4825 2.66896 12 2.6665V21.3332Z" fill="#4CBA3C"/>
<path d="M12 21.3332C11.7114 21.3332 11.4227 21.2676 11.1643 21.1366L10.9426 21.0242C8.40503 19.7381 6.19205 18.6164 4.71261 16.4041C3.33245 14.3402 2.62748 11.3928 2.66835 6.59935C2.67194 6.17786 2.88377 5.77835 3.24925 5.50377C3.61474 5.2292 4.09811 5.10642 4.57481 5.16707C5.94339 5.34121 7.01544 5.2947 7.95744 5.00261C8.9079 4.70789 9.79603 4.14191 10.7453 3.17472C11.0597 2.85429 11.5175 2.66896 12 2.6665V21.3332Z" fill="#96E38A"/>
<path fill-rule="evenodd" clip-rule="evenodd" d="M10.2589 2.69903C10.712 2.24251 11.3487 1.99841 11.9966 2.00001C12.6446 2.0016 13.28 2.24885 13.7305 2.70794C14.6225 3.6168 15.4193 4.11154 16.24 4.36604C17.0596 4.62018 18.0279 4.67301 19.341 4.50592C19.98 4.42461 20.6393 4.58642 21.1512 4.97095C21.6665 5.35808 21.9928 5.94526 21.9983 6.59385C22.0396 11.4394 21.3314 14.547 19.8416 16.7748C18.2648 19.1328 15.9146 20.3238 13.4322 21.5818L13.1371 21.7314C12.7859 21.9095 12.3962 21.999 12.0063 22C12.0042 22 12.0021 22 12 22C11.9979 22 11.9958 22 11.9936 22C11.6037 21.999 11.2141 21.9095 10.8628 21.7313L10.5678 21.5818C8.08542 20.3238 5.73522 19.1328 4.15844 16.7748C2.66866 14.547 1.96043 11.4395 2.0017 6.59419C2.00722 5.94612 2.333 5.35932 2.84764 4.97217C3.35882 4.58761 4.0174 4.42537 4.65601 4.50587C5.97858 4.6726 6.95 4.60925 7.76974 4.34728C8.58776 4.08587 9.37649 3.58796 10.2589 2.69903ZM12.6667 20.475L12.756 20.4297C15.3217 19.1293 17.3667 18.0772 18.7332 16.0337C20.0037 14.1337 20.7054 11.3466 20.665 6.60522C20.6634 6.41083 20.566 6.19899 20.3503 6.03696C20.1312 5.87234 19.8237 5.78859 19.5093 5.82859C18.0853 6.00978 16.9095 5.96959 15.8451 5.63955C14.7649 5.3046 13.7854 4.66739 12.7789 3.64187C12.745 3.60731 12.7075 3.57488 12.6667 3.54499V20.475ZM11.3333 3.53115V20.475L11.244 20.4297C8.67831 19.1293 6.63335 18.0772 5.26679 16.0337C3.99631 14.1338 3.29461 11.3467 3.33499 6.60554C3.33664 6.41131 3.43386 6.19965 3.64919 6.03766C3.86797 5.87308 4.17504 5.78913 4.48925 5.82874C5.93039 6.01041 7.11133 5.95746 8.17562 5.61734C9.24764 5.27475 10.2137 4.6372 11.2052 3.63836C11.2435 3.59972 11.2865 3.56379 11.3333 3.53115Z" fill="#288419"/>
</g>
<defs>
<clipPath id="clip0_37_6236">
<rect width="24" height="24" fill="white"/>
</clipPath>
</defs>
</svg>
