<svg width="80" height="80" viewBox="0 0 80 80" fill="none" xmlns="http://www.w3.org/2000/svg">
<g clip-path="url(#clip0_47_6468)">
<path d="M80 40C80 62.0914 62.0914 80 40 80C17.9086 80 0 62.0914 0 40C0 17.9086 17.9086 0 40 0C62.0914 0 80 17.9086 80 40Z" fill="#00BED5"/>
<path fill-rule="evenodd" clip-rule="evenodd" d="M80 40C80 62.0914 62.0914 80 40 80C17.9086 80 0 62.0914 0 40C0 17.9086 17.9086 0 40 0C62.0914 0 80 17.9086 80 40ZM40 78.3333C61.1709 78.3333 78.3333 61.1709 78.3333 40C78.3333 18.8291 61.1709 1.66667 40 1.66667C18.8291 1.66667 1.66667 18.8291 1.66667 40C1.66667 61.1709 18.8291 78.3333 40 78.3333Z" fill="black" fill-opacity="0.12"/>
<path d="M56.7676 50.0555L53.9846 48.0112C48.4096 43.9167 43.2963 40.4645 38.793 37.7543L37.7884 37.0798L44.3562 22.1102L56.7676 50.0555ZM60.6926 59.9998L65 55.6549L47.7001 16.6665H41.2141L33.4256 34.7263L32.5612 34.2932C27.9149 31.9662 24.3346 30.8321 21.6158 30.8321C18.126 30.8321 16.5461 32.7555 15.9124 33.8984C13.9967 37.3684 15.0918 42.1933 19.2533 48.656C20.7836 51.0303 22.4306 53.2394 23.5987 54.7447H29.8393L32.3887 48.8917L29.7137 42.753L26.5626 49.7194L25.5084 48.3262C24.8046 47.3718 24.1533 46.4292 23.5693 45.5248C20.1671 40.2463 19.6297 37.545 20.4036 36.57C21.1338 35.6509 25.4091 36.8675 30.0963 39.1945C32.672 40.3492 35.312 41.8427 37.9052 43.6218C39.7685 44.7823 41.7688 46.0873 43.8189 47.4836C51.3652 52.6269 58.1929 57.9969 60.6926 59.9998Z" fill="white"/>
</g>
<defs>
<clipPath id="clip0_47_6468">
<rect width="80" height="80" fill="white"/>
</clipPath>
</defs>
</svg>
