<svg width="80" height="80" viewBox="0 0 80 80" fill="none" xmlns="http://www.w3.org/2000/svg">
<g clip-path="url(#clip0_47_6434)">
<path d="M80 40C80 62.0914 62.0914 80 40 80C17.9086 80 0 62.0914 0 40C0 17.9086 17.9086 0 40 0C62.0914 0 80 17.9086 80 40Z" fill="black"/>
<path fill-rule="evenodd" clip-rule="evenodd" d="M80 40C80 62.0914 62.0914 80 40 80C17.9086 80 0 62.0914 0 40C0 17.9086 17.9086 0 40 0C62.0914 0 80 17.9086 80 40ZM40 78.3333C61.1709 78.3333 78.3333 61.1709 78.3333 40C78.3333 18.8291 61.1709 1.66667 40 1.66667C18.8291 1.66667 1.66667 18.8291 1.66667 40C1.66667 61.1709 18.8291 78.3333 40 78.3333Z" fill="white" fill-opacity="0.12"/>
<path fill-rule="evenodd" clip-rule="evenodd" d="M24.2773 43.5823C24.2773 31.8854 38.1866 30.2582 43.784 30.0587H43.7226C43.7226 29.5829 43.7292 29.1191 43.7356 28.6701C43.7901 24.8457 43.8293 22.0919 39.6434 22.0919C39.6434 22.0919 35.2728 22.0919 33.4019 27.8022L25.0134 27.0193C25.0134 21.3397 30.3962 15 40.5022 15C50.6082 15 53.43 21.5699 53.43 24.4712V41.3565C53.43 44.5801 57.1411 47.4967 57.1411 47.4967L50.6082 53.9438C48.7429 52.2758 47.0003 50.4751 45.3942 48.5558C40.1955 56.7069 24.2773 56.2003 24.2773 43.5823ZM34.092 42.0317C34.092 47.8801 43.784 49.2617 43.784 40.0515V35.3696C39.9041 35.4924 34.092 36.5977 34.092 42.0317Z" fill="white"/>
<path d="M59.472 58.8875C58.5979 60.0388 51.4209 66.5627 39.3979 66.5627C27.375 66.5627 18.0664 58.3656 15.306 54.9117C14.5239 54.0368 15.4287 53.6223 15.9347 53.96C24.3692 59.087 37.5423 67.5297 58.8739 57.4446C59.656 57.0761 60.3308 57.7362 59.472 58.8875Z" fill="#FF9900"/>
<path d="M64.0707 59.1327C63.538 60.4938 62.7044 61.7166 61.6324 62.7093C61.0036 63.2159 60.5435 63.0164 60.8809 62.2642C61.2183 61.512 63.1046 56.9069 62.3378 55.9245C61.571 54.9421 58.0899 55.4333 56.817 55.5561C55.5442 55.6789 55.2835 55.7863 55.2068 55.5561C54.8694 54.9114 57.6451 53.7448 59.4701 53.5145C61.295 53.2842 64.178 53.4224 64.7608 54.1746C65.3435 54.9267 64.7608 57.2446 64.0093 59.1327H64.0707Z" fill="#FF9900"/>
</g>
<defs>
<clipPath id="clip0_47_6434">
<rect width="80" height="80" fill="white"/>
</clipPath>
</defs>
</svg>
