<svg width="80" height="80" viewBox="0 0 80 80" fill="none" xmlns="http://www.w3.org/2000/svg">
<path d="M80 40C80 62.0914 62.0914 80 40 80C17.9086 80 0 62.0914 0 40C0 17.9086 17.9086 0 40 0C62.0914 0 80 17.9086 80 40Z" fill="#007FD2"/>
<path fill-rule="evenodd" clip-rule="evenodd" d="M80 40C80 62.0914 62.0914 80 40 80C17.9086 80 0 62.0914 0 40C0 17.9086 17.9086 0 40 0C62.0914 0 80 17.9086 80 40ZM40 78.3333C61.1709 78.3333 78.3333 61.1709 78.3333 40C78.3333 18.8291 61.1709 1.66667 40 1.66667C18.8291 1.66667 1.66667 18.8291 1.66667 40C1.66667 61.1709 18.8291 78.3333 40 78.3333Z" fill="white" fill-opacity="0.12"/>
<path fill-rule="evenodd" clip-rule="evenodd" d="M65.8337 40.3091C65.8337 39.3991 65.2009 38.6407 64.3482 38.4678C64.3465 38.4675 64.3449 38.4672 64.3431 38.4668C64.3409 38.4663 64.3386 38.4657 64.3362 38.4651L64.3328 38.4642C64.3278 38.4635 64.3229 38.4622 64.318 38.461C64.3131 38.4598 64.3082 38.4585 64.3033 38.4578L64.2688 38.4542C64.1782 38.4393 64.0862 38.4301 63.9921 38.4286L63.747 38.4052C57.8888 37.9804 51.8621 37.8132 46.2083 37.6986L46.197 37.6567C43.4453 27.2005 40.008 16.5103 35.3733 16.5103C31.0547 16.5302 27.1616 23.5541 23.7995 37.3913C21.4242 37.3607 19.2589 37.3272 17.2172 37.2917C17.1014 37.2895 16.9974 37.2888 16.9047 37.2888C16.4692 37.2888 16.2564 37.3073 16.1511 37.3215C15.0014 37.5279 14.167 38.5439 14.167 39.7385C14.167 40.9566 15.0646 42.0011 16.234 42.1718L16.2578 42.1967H22.6983C22.1006 44.9652 21.5766 47.703 21.1391 50.3405L20.9473 51.5017L20.9452 51.5572C20.9495 52.4529 21.6722 53.1815 22.5557 53.1815C23.1162 53.1815 23.624 52.8855 23.914 52.4245L23.9597 52.4615L27.1258 42.1967H42.3763C43.5415 46.6564 44.7507 51.2626 46.3478 55.5842C47.2022 57.8959 49.2016 63.3061 52.5426 63.3332H52.5806C57.7513 63.3332 59.7673 54.874 61.1025 49.2717L61.1034 49.2676C61.39 48.0623 61.6379 47.0214 61.8718 46.2565L61.9645 45.9406C61.987 45.8666 61.9989 45.7884 61.9989 45.7065C61.9989 45.2583 61.64 44.8947 61.1975 44.8947C60.8541 44.8947 60.5605 45.1124 60.446 45.4198L60.3337 45.7343C59.8947 46.9652 59.4888 48.1292 59.1292 49.1609L59.1018 49.2384C56.8634 55.6611 55.8415 58.5925 53.8399 58.5932L53.7907 58.5925L53.7626 58.5967L53.7127 58.5953C51.1508 58.5953 48.7383 48.0445 47.83 44.0724L47.795 43.9195C47.6513 43.2906 47.5188 42.711 47.3959 42.1967H63.9633C64.2745 42.1967 64.5673 42.1177 64.8244 41.9811L64.8293 41.979C64.8481 41.9692 64.8661 41.9583 64.8843 41.9474L64.9052 41.9349C64.9333 41.9185 64.9606 41.9022 64.9873 41.8844C65.0007 41.8758 65.0133 41.8666 65.026 41.8573C65.066 41.8296 65.1046 41.8004 65.1426 41.7691L65.1503 41.7627C65.5675 41.4162 65.8337 40.8911 65.8337 40.3091ZM35.8535 21.6366C35.6596 21.3776 35.4391 21.2417 35.194 21.2417C34.9917 21.2417 34.807 21.3335 34.6883 21.4103C32.8257 22.8924 30.2769 29.1706 28.1882 37.4432L30.0374 37.4646C33.6889 37.5065 37.4597 37.5499 41.187 37.6083C40.2044 33.8188 39.2759 30.5709 38.4247 27.949C37.1809 24.1169 36.3402 22.4015 35.8535 21.6366Z" fill="white"/>
</svg>
