<svg width="80" height="80" viewBox="0 0 80 80" fill="none" xmlns="http://www.w3.org/2000/svg">
<g clip-path="url(#clip0_47_6542)">
<path fill-rule="evenodd" clip-rule="evenodd" d="M40 80C62.0914 80 80 62.0914 80 40C80 17.9086 62.0914 0 40 0C17.9086 0 0 17.9086 0 40C0 62.0914 17.9086 80 40 80Z" fill="#E91D76"/>
<path fill-rule="evenodd" clip-rule="evenodd" d="M80 40C80 62.0914 62.0914 80 40 80C17.9086 80 0 62.0914 0 40C0 17.9086 17.9086 0 40 0C62.0914 0 80 17.9086 80 40ZM40 78.3333C61.1709 78.3333 78.3333 61.1709 78.3333 40C78.3333 18.8291 61.1709 1.66667 40 1.66667C18.8291 1.66667 1.66667 18.8291 1.66667 40C1.66667 61.1709 18.8291 78.3333 40 78.3333Z" fill="white" fill-opacity="0.12"/>
<path fill-rule="evenodd" clip-rule="evenodd" d="M69.5458 38.9494C68.4563 34.2408 59.6542 18.3335 39.4371 18.3335C23.4613 18.3335 10 27.1416 10 39.7892C10 46.4645 15.5243 52.2758 24.1984 52.2758H24.5741C26.5457 56.2473 30.2061 57.6853 34.0517 57.6853C36.8616 57.6009 39.6145 56.8726 42.0985 55.5566C42.6825 55.2166 43.3375 55.0167 44.0118 54.9725C44.4931 54.9741 44.9564 55.1563 45.3098 55.483C45.7227 55.8305 48.8513 58.5191 50.0023 59.511C50.0364 59.5402 50.0785 59.5585 50.1231 59.5636C50.1677 59.5687 50.2128 59.5603 50.2526 59.5395C50.2923 59.5187 50.325 59.4864 50.3462 59.4469C50.3675 59.4073 50.3765 59.3623 50.3719 59.3176L50.1704 57.1476L55.9979 61.244C56.0377 61.2722 56.0855 61.2867 56.1343 61.2854C56.183 61.284 56.23 61.267 56.2683 61.2367C56.3065 61.2064 56.3339 61.1645 56.3463 61.1174C56.3587 61.0702 56.3555 61.0203 56.3372 60.9751L53.2972 53.4097C54.1983 53.6153 55.119 53.7224 56.0432 53.7289C58.0728 53.7846 60.0474 53.0643 61.5645 51.7149C62.3404 51.0938 63.2452 50.6538 64.2128 50.427C70.0926 47.9488 70.6364 43.6581 69.5458 38.9494ZM66.973 45.4948L64.0995 42.2938C64.331 41.9907 64.4686 41.6119 64.4686 41.201C64.4686 40.7368 64.293 40.3136 64.0046 39.9942L66.3406 36.9113C66.7509 37.7286 67.0787 38.5847 67.3193 39.467C67.9245 42.0791 67.845 44.0115 66.973 45.4948ZM66.5138 45.9882L63.5999 42.7426C63.3278 42.9075 63.0085 43.0025 62.6671 43.0025C62.3386 43.0025 62.0306 42.9146 61.7655 42.761L59.8899 44.9268L66.5138 45.9882ZM59.0843 44.8232L61.2532 42.3175C61.0105 42.0106 60.8656 41.6227 60.8656 41.201C60.8656 41.0278 60.8901 40.8603 60.9357 40.7017L56.0446 38.214C55.7235 38.6278 55.226 38.898 54.665 38.9116L53.9171 43.4634C54.5068 43.6783 54.9527 44.1926 55.0708 44.8224L59.0843 44.8232ZM54.5961 46.4078C54.8346 46.1609 55.0032 45.8459 55.0699 45.4949L58.8477 45.4918L57.9142 51.1037L54.5961 46.4078ZM52.747 46.8714C52.9213 46.9276 53.1072 46.9579 53.3002 46.9579C53.5696 46.9579 53.8253 46.8988 54.0548 46.7928L57.2656 51.3363C56.8665 51.4043 56.4622 51.438 56.0573 51.437C55.2944 51.4304 54.5344 51.3413 53.7906 51.1712L53.7976 51.1752L50.7294 50.4985L52.747 46.8714ZM52.1458 46.5396L50.0376 50.3374L44.2686 47.4484L48.4415 41.3128L51.7499 44.2384C51.5903 44.5072 51.4987 44.8211 51.4987 45.1565C51.4987 45.7122 51.7503 46.2091 52.1458 46.5396ZM52.1911 43.7368C52.487 43.5052 52.8572 43.3642 53.2599 43.3554L54.007 38.8051C53.7212 38.7016 53.469 38.5278 53.2714 38.3047L48.9491 40.8647L52.1911 43.7368ZM62.6671 39.3995C62.9564 39.3995 63.2298 39.4677 63.472 39.5889L66.0083 36.2416C65.4544 35.1836 64.8307 34.1636 64.1413 33.1885L56.3732 36.693C56.405 36.8271 56.4218 36.9669 56.4218 37.1107C56.4218 37.285 56.3971 37.4535 56.3509 37.6129L61.2416 40.0995C61.5711 39.6737 62.0871 39.3995 62.6671 39.3995ZM26.3282 50.0433L30.7781 46.4595L34.6362 46.8591C34.6717 47.2821 34.8534 47.6636 35.1307 47.9528L33.1626 50.7079L26.3282 50.0433ZM35.6761 48.3422L33.7366 51.0412L36.9509 55.0088L43.1126 47.838L38.1492 47.25C37.9186 47.9792 37.2367 48.5077 36.4312 48.5077C36.1616 48.5077 35.9058 48.4484 35.6761 48.3422ZM38.2285 46.5823L43.3824 47.1925L42.3618 40.0594C42.1237 40.0491 41.8976 39.9926 41.6922 39.8986L37.7347 45.4626C38.0166 45.758 38.1991 46.1492 38.2285 46.5823ZM43.9877 46.6709L43.0286 39.9631C43.4064 39.8328 43.7273 39.5803 43.9441 39.2529L47.8746 40.9553L43.9877 46.6709ZM48.0387 40.3139L44.1991 38.6541C44.2274 38.5272 44.2424 38.3952 44.2424 38.2596C44.2424 37.749 44.03 37.288 43.6886 36.9602L47.6905 30.8206C47.8014 30.8663 47.9179 30.9013 48.0387 30.9243V40.3139ZM43.1313 36.5952L47.1486 30.4722C47.0422 30.373 46.9478 30.261 46.8679 30.1387L38.1764 33.703L41.3957 36.7922C41.6905 36.5819 42.0512 36.4582 42.4409 36.4582C42.6855 36.4582 42.9187 36.5069 43.1313 36.5952ZM37.8873 33.0929L46.6118 29.5157C46.588 29.399 46.5756 29.2782 46.5756 29.1545C46.5756 29.0863 46.5794 29.019 46.5867 28.9527L39.0283 26.6045C38.7796 27.07 38.3326 27.4135 37.8001 27.5221L37.8873 33.0929ZM46.786 28.3088L39.2283 25.9613C39.2358 25.8942 39.2397 25.826 39.2397 25.757C39.2397 25.5616 39.2086 25.3734 39.1511 25.1972L46.1576 21.3152L47.6413 27.5096C47.2752 27.6737 46.9737 27.9564 46.786 28.3088ZM45.1355 21.1138L38.8262 24.6085C38.5221 24.2414 38.0752 23.9969 37.5706 23.9603L37.1885 20.6908C37.9336 20.6496 38.6839 20.6244 39.4412 20.6244C41.3488 20.6207 43.2532 20.7834 45.1326 21.1107L45.1355 21.1138ZM36.5098 20.7281L36.897 24.0382C36.5098 24.16 36.1789 24.4091 35.9535 24.7364L29.5012 21.8902C31.7955 21.2826 34.1422 20.8935 36.5098 20.7281ZM28.5778 22.2124L35.6831 25.3493C35.6528 25.4803 35.6367 25.6168 35.6367 25.757C35.6367 25.8442 35.6429 25.9299 35.6549 26.0138L26.7428 29.0534C26.5967 28.7955 26.389 28.5773 26.1395 28.4187L28.5778 22.2124ZM26.9589 29.6929L35.8743 26.6518C36.1362 27.1085 36.5924 27.4396 37.1302 27.5322L37.2177 33.1462L26.9663 30.1255C26.9725 30.0645 26.9757 30.0026 26.9757 29.94C26.9757 29.8562 26.97 29.7737 26.9589 29.6929ZM46.8878 21.4763L48.2953 27.3549C48.3224 27.3536 48.3497 27.353 48.3771 27.353C48.9042 27.353 49.3785 27.5795 49.708 27.9404L54.9497 24.6987C52.4394 23.2259 49.7216 22.1396 46.8878 21.4763ZM55.5286 25.1266L50.0607 28.5123C50.1133 28.65 50.1495 28.7959 50.1668 28.9476L56.9948 29.4355L55.5286 25.1266ZM56.9958 30.1101L50.1183 29.6181C50.0466 29.8884 49.9135 30.1337 49.735 30.3384L53.7943 35.5093C54.0417 35.3814 54.3226 35.3092 54.6203 35.3092C54.7348 35.3092 54.8467 35.3199 54.9552 35.3403L56.9958 30.1101ZM53.2621 35.9272L49.2037 30.7556C49.051 30.8346 48.8856 30.8924 48.7113 30.9251V40.2182L52.9257 37.7234C52.8566 37.5321 52.8189 37.3258 52.8189 37.1107C52.8189 36.6577 52.986 36.2438 53.2621 35.9272ZM37.5379 34.0233L40.9303 37.2777C40.7463 37.5602 40.6394 37.8974 40.6394 38.2596C40.6394 38.7429 40.8297 39.1818 41.1395 39.5053L37.18 45.0672C36.952 44.9629 36.6984 44.9047 36.4312 44.9047C36.2275 44.9047 36.0317 44.9385 35.849 45.0009L32.6772 39.3799C33.0706 39.0494 33.3207 38.5538 33.3207 37.9998C33.3207 37.7235 33.2585 37.4617 33.1473 37.2277L37.5379 34.0233ZM35.2709 45.3281L32.0987 39.7061C31.9629 39.7522 31.8197 39.7826 31.6714 39.795L31.0339 45.8221L34.7034 46.1947C34.8046 45.8523 35.0048 45.5524 35.2709 45.3281ZM17.116 34.5246C17.1554 34.522 17.1951 34.5207 17.2352 34.5207C17.6823 34.5207 18.0914 34.6836 18.4063 34.9533L23.5917 30.8015C23.4537 30.5485 23.3745 30.2587 23.3728 29.9506L17.0025 28.779C16.6279 29.1646 16.2715 29.5603 15.9392 29.9631L17.116 34.5246ZM16.4705 34.6906L15.4226 30.6297C13.8475 32.7036 12.8219 35.1417 12.441 37.7179L15.4576 36.6165C15.4419 36.5208 15.4337 36.4224 15.4337 36.3222C15.4337 35.6007 15.8579 34.9782 16.4705 34.6906ZM15.6891 37.2474L12.3574 38.4641L12.3543 38.4611C12.3141 38.9011 12.2869 39.3431 12.2899 39.7922C12.2975 41.569 12.7969 43.3089 13.7329 44.8191L16.308 37.8671C16.0544 37.7146 15.8414 37.5013 15.6891 37.2474ZM16.9402 38.0997L14.2626 45.3287L21.1326 43.2082C21.125 43.141 21.1211 43.0727 21.1211 43.0035C21.1211 42.575 21.2707 42.1815 21.5205 41.8723L18.1278 37.8874C17.8647 38.0378 17.56 38.1237 17.2352 38.1237C17.1347 38.1237 17.0362 38.1155 16.9402 38.0997ZM18.6397 37.4504L22.0336 41.4363C22.2886 41.2913 22.5826 41.2068 22.8959 41.2022L24.5453 31.6286C24.3474 31.5549 24.1658 31.4473 24.0078 31.3129L18.8268 35.4777C18.9608 35.7296 19.0367 36.017 19.0367 36.3222C19.0367 36.7493 18.8881 37.1417 18.6397 37.4504ZM25.2036 31.7412L23.5541 41.3158C23.8381 41.4221 24.0881 41.5981 24.2833 41.8228L29.8202 38.6002C29.7538 38.4124 29.7177 38.2103 29.7177 37.9998C29.7177 37.5467 29.885 37.1327 30.1612 36.8161L26.0037 31.5396C25.7635 31.6643 25.4918 31.7366 25.2036 31.7412ZM26.5326 31.1233L30.6904 36.3999C30.9385 36.2711 31.2203 36.1984 31.5192 36.1984C31.9946 36.1984 32.427 36.3825 32.749 36.6834L36.8089 33.7212L26.7764 30.7644C26.7096 30.894 26.6275 31.0144 26.5326 31.1233ZM25.5127 28.1702L27.7802 22.3957L27.7773 22.3926C25.0272 23.2641 22.4235 24.5438 20.0537 26.189C19.186 26.8003 18.3636 27.4734 17.5927 28.2029L23.4936 29.2897C23.7545 28.6161 24.4085 28.1385 25.1742 28.1385C25.2899 28.1385 25.4031 28.1494 25.5127 28.1702ZM56.097 36.0785L63.6217 32.684L57.6644 30.2471L55.581 35.5864C55.784 35.7146 55.9596 35.8822 56.097 36.0785ZM30.3753 45.6438L31.002 39.726C30.672 39.6272 30.3818 39.4365 30.1611 39.1835L24.623 42.407C24.6885 42.5937 24.7241 42.7945 24.7241 43.0035C24.7241 43.1232 24.7124 43.2401 24.6902 43.3532L30.3753 45.6438ZM24.4396 43.9755L30.0077 46.2208L25.6314 49.7322L23.8234 44.564C24.0728 44.4197 24.2843 44.2174 24.4396 43.9755ZM22.7074 44.7923C22.7779 44.8007 22.8498 44.805 22.9226 44.805C23.0154 44.805 23.1065 44.798 23.1955 44.7845L25.011 49.9759L24.5348 49.992H24.2034C23.1756 49.9917 22.1504 49.8905 21.1423 49.6899L22.7074 44.7923ZM21.3319 43.8498C21.4988 44.1629 21.7554 44.4209 22.0675 44.5895L20.4827 49.5509C18.1617 49.0221 16.0738 47.7573 14.5304 45.9449L14.5335 45.948L21.3319 43.8498ZM63.0356 31.7193L57.7439 29.5533L56.4006 25.6049C57.7122 26.4827 58.9502 27.4658 60.1023 28.5443C61.1527 29.5312 62.1319 30.5912 63.0327 31.7163L63.0356 31.7193ZM26.6262 51.2618L26.3594 50.724L32.4759 51.3182L29.0793 54.0723C28.0233 53.3711 27.175 52.399 26.6233 51.2578L26.6262 51.2618ZM34.0568 55.4015C32.546 55.4401 31.0484 55.1106 29.6935 54.4413L33.2754 51.5357L36.2339 55.1941C35.5158 55.3282 34.7872 55.3976 34.0568 55.4015ZM41.0704 53.5215C40.106 54.0116 39.1023 54.4198 38.0696 54.7419L43.5073 48.41L43.8568 52.7017C42.8767 52.7634 41.9226 53.042 41.0634 53.5174L41.0704 53.5215ZM51.4927 55.2756L47.8101 52.6866C47.7771 52.6637 47.7383 52.6506 47.6981 52.649C47.6579 52.6474 47.6181 52.6573 47.5833 52.6775C47.5485 52.6977 47.5202 52.7273 47.5017 52.763C47.4832 52.7987 47.4753 52.8389 47.4788 52.879L47.6268 54.4479L47.5815 54.4091C47.1921 54.0757 46.9015 53.8269 46.792 53.7349C46.1581 53.1807 45.3722 52.8298 44.5364 52.7279L44.1638 48.1421L49.8775 51.001L51.6336 55.3682L51.4927 55.2756ZM63.3368 48.3134C63.2977 48.3299 63.185 48.3636 63.0882 48.3926L63.0437 48.406C61.9453 48.6977 60.9286 49.2379 60.0721 49.9849C59.6405 50.3692 59.1542 50.6872 58.6291 50.9285L59.5243 45.5451L66.0959 46.6015C65.2872 47.3366 64.3494 47.9157 63.3298 48.3093L63.3368 48.3134Z" fill="white"/>
<path d="M66.9387 59.7617L65.8592 57.0106L65.2762 57.0117V60.3971H65.7343V59.0578L65.6901 57.6884H65.7011L66.7937 60.3991H67.0958L68.1934 57.6803H68.2045L68.1582 59.0568V60.3961H68.6164V57.0106H68.0313L66.9519 59.7617H66.9387Z" fill="white"/>
<path d="M63.6872 57.3681H64.7758V57.0076H62.1435V57.3681H63.2291V60.3891H63.6872V57.3681Z" fill="white"/>
</g>
<defs>
<clipPath id="clip0_47_6542">
<rect width="80" height="80" fill="white"/>
</clipPath>
</defs>
</svg>
