<svg width="80" height="80" viewBox="0 0 80 80" fill="none" xmlns="http://www.w3.org/2000/svg">
<g clip-path="url(#clip0_47_6321)">
<path d="M33.4 79.6C14.4 76.2 0 59.8 0 40C0 18 18 0 40 0C62 0 80 18 80 40C80 59.8 65.6 76.2 46.6 79.6L44.4 77.8H35.6L33.4 79.6Z" fill="#1877F2"/>
<path d="M55.6 51.2L57.4 40H46.8V32.2C46.8 29 48 26.6 52.8 26.6H58V16.4C55.2 16 52 15.6 49.2 15.6C40 15.6 33.6 21.2 33.6 31.2V40H23.6V51.2H33.6V79.4C35.8 79.8 38 80 40.2 80C42.4 80 44.6 79.8 46.8 79.4V51.2H55.6Z" fill="white"/>
</g>
<defs>
<clipPath id="clip0_47_6321">
<rect width="80" height="80" fill="white"/>
</clipPath>
</defs>
</svg>
