<svg width="80" height="80" viewBox="0 0 80 80" fill="none" xmlns="http://www.w3.org/2000/svg">
<g clip-path="url(#clip0_47_6327)">
<path d="M80 40C80 62.0914 62.0914 80 40 80C17.9086 80 0 62.0914 0 40C0 17.9086 17.9086 0 40 0C62.0914 0 80 17.9086 80 40Z" fill="white"/>
<path fill-rule="evenodd" clip-rule="evenodd" d="M80 40C80 62.0914 62.0914 80 40 80C17.9086 80 0 62.0914 0 40C0 17.9086 17.9086 0 40 0C62.0914 0 80 17.9086 80 40ZM40 78.3333C61.1709 78.3333 78.3333 61.1709 78.3333 40C78.3333 18.8291 61.1709 1.66667 40 1.66667C18.8291 1.66667 1.66667 18.8291 1.66667 40C1.66667 61.1709 18.8291 78.3333 40 78.3333Z" fill="black" fill-opacity="0.12"/>
<g clip-path="url(#clip1_47_6327)">
<path d="M66.6386 40.499C66.6386 38.3139 66.4571 36.7194 66.0645 35.0659H40.5312V44.928H55.5187C55.2166 47.3789 53.5849 51.0699 49.9588 53.55L49.908 53.8802L57.9811 59.9917L58.5404 60.0463C63.6772 55.4104 66.6386 48.5895 66.6386 40.499Z" fill="#4285F4"/>
<path d="M40.5319 66.4835C47.8746 66.4835 54.0388 64.1212 58.5413 60.0464L49.9596 53.55C47.6631 55.115 44.5809 56.2075 40.5319 56.2075C33.3403 56.2075 27.2365 51.5717 25.0606 45.1641L24.7417 45.1905L16.3471 51.5391L16.2373 51.8374C20.7094 60.5186 29.8954 66.4835 40.5319 66.4835Z" fill="#34A853"/>
<path d="M25.0599 45.1642C24.4858 43.5107 24.1536 41.7389 24.1536 39.9082C24.1536 38.0774 24.4858 36.3058 25.0297 34.6523L25.0145 34.3001L16.5148 27.8496L16.2367 27.9789C14.3935 31.5813 13.3359 35.6267 13.3359 39.9082C13.3359 44.1898 14.3935 48.235 16.2367 51.8374L25.0599 45.1642Z" fill="#FBBC05"/>
<path d="M40.5317 23.6091C45.6382 23.6091 49.0829 25.7646 51.047 27.566L58.7221 20.243C54.0084 15.9615 47.8742 13.3335 40.5317 13.3335C29.8953 13.3335 20.7093 19.2981 16.2373 27.9792L25.0304 34.6526C27.2364 28.245 33.3401 23.6091 40.5317 23.6091Z" fill="#EB4335"/>
</g>
</g>
<defs>
<clipPath id="clip0_47_6327">
<rect width="80" height="80" fill="white"/>
</clipPath>
<clipPath id="clip1_47_6327">
<rect width="53.3333" height="53.3333" fill="white" transform="translate(13.333 13.3335)"/>
</clipPath>
</defs>
</svg>
