<svg width="80" height="80" viewBox="0 0 80 80" fill="none" xmlns="http://www.w3.org/2000/svg">
<g clip-path="url(#clip0_47_6554)">
<path d="M80 40C80 62.0914 62.0914 80 40 80C17.9086 80 0 62.0914 0 40C0 17.9086 17.9086 0 40 0C62.0914 0 80 17.9086 80 40Z" fill="#2E3584"/>
<path fill-rule="evenodd" clip-rule="evenodd" d="M80 40C80 62.0914 62.0914 80 40 80C17.9086 80 0 62.0914 0 40C0 17.9086 17.9086 0 40 0C62.0914 0 80 17.9086 80 40ZM40 78.3333C61.1709 78.3333 78.3333 61.1709 78.3333 40C78.3333 18.8291 61.1709 1.66667 40 1.66667C18.8291 1.66667 1.66667 18.8291 1.66667 40C1.66667 61.1709 18.8291 78.3333 40 78.3333Z" fill="white" fill-opacity="0.12"/>
<path d="M55.3638 41.3972C59.1135 41.3972 62.8133 41.3972 66.6585 41.3972C66.4313 43.0128 66.2119 44.573 65.9888 46.1595C65.7004 46.1595 65.5035 46.1595 65.3065 46.1595C58.2834 46.1595 51.2592 46.2304 44.2374 46.1317C40.3066 46.0765 36.933 47.3533 33.8889 49.7136C32.3681 50.8928 30.8651 52.0953 29.3366 53.2646C27.4023 54.7443 25.2133 55.494 22.7686 55.4804C21.374 55.4727 19.9792 55.4879 18.5848 55.4678C18.405 55.4653 18.1582 55.3613 18.059 55.2216C16.2959 52.7392 15.0338 50.0171 14.2218 47.0849C14.2095 47.0404 14.2203 46.9894 14.2203 46.8759C14.4041 46.8759 14.5787 46.8759 14.7533 46.8759C17.2437 46.8758 19.7347 46.8474 22.2246 46.8846C24.2644 46.915 26.0808 46.3383 27.6904 45.0969C28.7281 44.2966 29.7469 43.4711 30.7983 42.6894C32.0225 41.7793 33.4073 41.3847 34.9418 41.3889C41.7325 41.4079 48.5232 41.3972 55.3638 41.3972Z" fill="white"/>
<path d="M16.2092 27.826C16.8224 26.7989 17.4146 25.8016 18.0279 24.8176C18.1088 24.6878 18.2982 24.5433 18.4368 24.5439C20.3454 24.5519 22.2564 24.5314 24.1615 24.6255C25.9655 24.7146 27.5768 25.4391 29.0117 26.5035C30.6237 27.6993 32.1845 28.964 33.7729 30.1918C35.8008 31.7595 37.9882 33.0295 40.5336 33.5266C41.5197 33.7192 42.5416 33.8038 43.5477 33.8069C50.838 33.8297 58.1284 33.8191 65.4189 33.8191C65.5669 33.8191 65.715 33.8191 65.9778 33.8191C66.2053 35.3929 66.431 36.9552 66.6663 38.584C66.3626 38.584 66.1675 38.584 65.9723 38.584C55.6429 38.584 45.3133 38.5687 34.9839 38.599C33.2707 38.6041 31.7966 38.0895 30.4665 37.0687C29.5187 36.3413 28.5902 35.5888 27.6413 34.8631C26.0558 33.6505 24.2594 33.0886 22.2623 33.1052C19.7714 33.1259 17.2802 33.1102 14.7892 33.1102C14.6083 33.1102 14.4274 33.1102 14.184 33.1102C14.6618 31.2516 15.3462 29.5252 16.2092 27.826Z" fill="white"/>
<path d="M45.5067 53.7214C43.2885 53.7175 41.487 54.6318 39.8473 55.9593C38.167 57.3196 36.8765 59.0307 35.5256 60.6924C34.4694 61.9917 33.3478 63.2376 32.2665 64.5166C31.7306 65.1505 31.1898 65.2374 30.3776 64.9107C26.8323 63.485 23.6997 61.4609 21.0018 58.7597C20.8746 58.6324 20.753 58.4995 20.5387 58.2748C20.954 58.2748 21.2728 58.2716 21.5915 58.2754C23.3049 58.2959 25.008 58.2388 26.6716 57.7531C28.9031 57.1016 30.7366 55.7765 32.5389 54.3774C34.1624 53.117 35.7783 51.8374 37.4826 50.6928C39.3283 49.4532 41.4189 48.9487 43.6606 48.9581C50.586 48.9871 57.5115 48.9687 64.4371 48.9688C64.6189 48.9688 64.8008 48.9688 65.0528 48.9688C65.0036 49.1413 64.9832 49.2824 64.9251 49.4057C64.3046 50.7228 63.6718 52.0341 63.058 53.3543C62.9167 53.6585 62.7166 53.7292 62.3957 53.7286C56.7822 53.7184 51.1687 53.7212 45.5067 53.7214Z" fill="white"/>
<path d="M55.5631 31.0063C51.7267 31.0063 47.9378 30.9251 44.1542 31.0315C41.0406 31.1191 38.3602 30.1229 35.9364 28.283C34.3901 27.1092 32.8881 25.8772 31.3459 24.6978C29.5043 23.2893 27.49 22.2302 25.1623 21.9004C24.36 21.7867 23.5433 21.7617 22.7318 21.7301C22.0385 21.7031 21.3433 21.7245 20.572 21.7245C20.6838 21.5777 20.7473 21.4726 20.831 21.3874C23.7247 18.4409 27.1066 16.256 30.9969 14.8546C31.323 14.7371 31.5468 14.8029 31.7453 15.0236C32.9415 16.3539 34.1374 17.6847 35.3184 19.0284C36.5988 20.4852 37.7953 22.0228 39.1527 23.4029C40.5816 24.8557 42.3186 25.8643 44.3838 26.1716C44.8572 26.242 45.3435 26.246 45.8239 26.2464C51.3377 26.2512 56.8515 26.2522 62.3653 26.2428C62.7006 26.2422 62.9136 26.3136 63.0646 26.6402C63.6689 27.9464 64.299 29.2407 64.9143 30.5419C64.9758 30.6719 65.0017 30.8188 65.0589 31.0063C61.8815 31.0063 58.7472 31.0063 55.5631 31.0063Z" fill="white"/>
<path d="M49.3663 64.9585C44.5793 66.726 39.7193 67.1132 34.7499 66.1608C34.7499 66.1092 34.7361 66.0657 34.7519 66.0464C36.3788 64.057 37.9939 62.0576 39.6424 60.0862C40.5713 58.9753 41.6141 57.9783 42.8902 57.2571C43.6994 56.7997 44.5643 56.5398 45.4968 56.5394C50.4934 56.5368 55.4899 56.5381 60.4864 56.5387C60.5661 56.5387 60.6457 56.5464 60.8628 56.5576C57.7399 60.432 53.9444 63.1931 49.3663 64.9585Z" fill="white"/>
<path d="M42.7065 13.4716C49.6417 14.2531 55.3842 17.2486 60.0081 22.4022C60.2838 22.7095 60.5407 23.0336 60.8507 23.4026C60.676 23.4197 60.5562 23.4415 60.4364 23.4416C55.4895 23.4433 50.5425 23.4333 45.5956 23.4484C43.9064 23.4536 42.5471 22.7037 41.3659 21.6168C40.4784 20.8 39.6588 19.8987 38.8848 18.9716C37.486 17.2961 36.1438 15.5731 34.7536 13.8397C37.3701 13.3089 40.0063 13.2123 42.7065 13.4716Z" fill="white"/>
<path d="M24.5765 43.6723C24.0259 43.8043 23.5127 44.0213 22.9973 44.0266C19.8794 44.0588 16.761 44.0426 13.5605 44.0426C13.4798 43.2589 13.3256 42.4747 13.3333 41.6921C13.3508 39.9214 13.4518 38.1517 13.5099 36.3812C13.5215 36.0296 13.6525 35.9076 14.023 35.9097C16.8269 35.9258 19.631 35.9191 22.435 35.9184C23.6293 35.9181 24.7393 36.2123 25.6998 36.9341C27.0344 37.9371 28.3467 38.9698 29.6977 40.0123C28.1842 41.1398 26.689 42.2582 25.1866 43.3669C25.0161 43.4926 24.8051 43.5633 24.5765 43.6723Z" fill="white"/>
</g>
<defs>
<clipPath id="clip0_47_6554">
<rect width="80" height="80" fill="white"/>
</clipPath>
</defs>
</svg>
