<svg width="80" height="80" viewBox="0 0 80 80" fill="none" xmlns="http://www.w3.org/2000/svg">
<g clip-path="url(#clip0_47_6460)">
<path d="M40.0131 0C23.3134 0 18.4294 0.0172344 17.4801 0.0959997C14.053 0.380946 11.9205 0.920693 9.59722 2.07768C7.80682 2.96702 6.39475 3.99786 5.00117 5.44291C2.4632 8.07821 0.925024 11.3203 0.368194 15.1742C0.0974889 17.0451 0.0187229 17.4267 0.00272798 26.9832C-0.00340997 30.1687 0.00272798 34.361 0.00272798 39.9843C0.00272798 56.6749 0.021172 61.5553 0.101177 62.5031C0.37805 65.8388 0.901015 67.9374 2.00851 70.233C4.12504 74.6272 8.16732 77.926 12.9295 79.1568C14.5785 79.5815 16.3997 79.8154 18.7377 79.9261C19.7283 79.9692 29.8248 80 39.9275 80C50.0303 80 60.133 79.9877 61.0989 79.9384C63.8061 79.811 65.3781 79.6 67.1163 79.1507C71.9092 77.9136 75.8777 74.6641 78.0373 70.2084C79.1232 67.9682 79.6739 65.7895 79.9231 62.628C79.9772 61.9388 80 50.9489 80 39.9739C80 28.9969 79.9754 18.0273 79.9212 17.3381C79.669 14.1255 79.1183 11.9653 77.9973 9.68203C77.0775 7.81295 76.0561 6.41712 74.5734 4.98997C71.9271 2.46174 68.6908 0.923142 64.8342 0.366796C62.9656 0.0966048 62.5934 0.0165997 53.0321 0H40.0131Z" fill="url(#paint0_radial_47_6460)"/>
<path d="M40.0131 0C23.3134 0 18.4294 0.0172344 17.4801 0.0959997C14.053 0.380946 11.9205 0.920693 9.59722 2.07768C7.80682 2.96702 6.39475 3.99786 5.00117 5.44291C2.4632 8.07821 0.925024 11.3203 0.368194 15.1742C0.0974889 17.0451 0.0187229 17.4267 0.00272798 26.9832C-0.00340997 30.1687 0.00272798 34.361 0.00272798 39.9843C0.00272798 56.6749 0.021172 61.5553 0.101177 62.5031C0.37805 65.8388 0.901015 67.9374 2.00851 70.233C4.12504 74.6272 8.16732 77.926 12.9295 79.1568C14.5785 79.5815 16.3997 79.8154 18.7377 79.9261C19.7283 79.9692 29.8248 80 39.9275 80C50.0303 80 60.133 79.9877 61.0989 79.9384C63.8061 79.811 65.3781 79.6 67.1163 79.1507C71.9092 77.9136 75.8777 74.6641 78.0373 70.2084C79.1232 67.9682 79.6739 65.7895 79.9231 62.628C79.9772 61.9388 80 50.9489 80 39.9739C80 28.9969 79.9754 18.0273 79.9212 17.3381C79.669 14.1255 79.1183 11.9653 77.9973 9.68203C77.0775 7.81295 76.0561 6.41712 74.5734 4.98997C71.9271 2.46174 68.6908 0.923142 64.8342 0.366796C62.9656 0.0966048 62.5934 0.0165997 53.0321 0H40.0131Z" fill="url(#paint1_radial_47_6460)"/>
<path d="M40.0131 0C23.3134 0 18.4294 0.0172344 17.4801 0.0959997C14.053 0.380946 11.9205 0.920693 9.59722 2.07768C7.80682 2.96702 6.39475 3.99786 5.00117 5.44291C2.4632 8.07821 0.925024 11.3203 0.368194 15.1742C0.0974889 17.0451 0.0187229 17.4267 0.00272798 26.9832C-0.00340997 30.1687 0.00272798 34.361 0.00272798 39.9843C0.00272798 56.6749 0.021172 61.5553 0.101177 62.5031C0.37805 65.8388 0.901015 67.9374 2.00851 70.233C4.12504 74.6272 8.16732 77.926 12.9295 79.1568C14.5785 79.5815 16.3997 79.8154 18.7377 79.9261C19.7283 79.9692 29.8248 80 39.9275 80C50.0303 80 60.133 79.9877 61.0989 79.9384C63.8061 79.811 65.3781 79.6 67.1163 79.1507C71.9092 77.9136 75.8777 74.6641 78.0373 70.2084C79.1232 67.9682 79.6739 65.7895 79.9231 62.628C79.9772 61.9388 80 50.9489 80 39.9739C80 28.9969 79.9754 18.0273 79.9212 17.3381C79.669 14.1255 79.1183 11.9653 77.9973 9.68203C77.0775 7.81295 76.0561 6.41712 74.5734 4.98997C71.9271 2.46174 68.6908 0.923142 64.8342 0.366796C62.9656 0.0966048 62.5934 0.0165997 53.0321 0H40.0131Z" fill="url(#paint2_radial_47_6460)"/>
<path d="M40.0131 0C23.3134 0 18.4294 0.0172344 17.4801 0.0959997C14.053 0.380946 11.9205 0.920693 9.59722 2.07768C7.80682 2.96702 6.39475 3.99786 5.00117 5.44291C2.4632 8.07821 0.925024 11.3203 0.368194 15.1742C0.0974889 17.0451 0.0187229 17.4267 0.00272798 26.9832C-0.00340997 30.1687 0.00272798 34.361 0.00272798 39.9843C0.00272798 56.6749 0.021172 61.5553 0.101177 62.5031C0.37805 65.8388 0.901015 67.9374 2.00851 70.233C4.12504 74.6272 8.16732 77.926 12.9295 79.1568C14.5785 79.5815 16.3997 79.8154 18.7377 79.9261C19.7283 79.9692 29.8248 80 39.9275 80C50.0303 80 60.133 79.9877 61.0989 79.9384C63.8061 79.811 65.3781 79.6 67.1163 79.1507C71.9092 77.9136 75.8777 74.6641 78.0373 70.2084C79.1232 67.9682 79.6739 65.7895 79.9231 62.628C79.9772 61.9388 80 50.9489 80 39.9739C80 28.9969 79.9754 18.0273 79.9212 17.3381C79.669 14.1255 79.1183 11.9653 77.9973 9.68203C77.0775 7.81295 76.0561 6.41712 74.5734 4.98997C71.9271 2.46174 68.6908 0.923142 64.8342 0.366796C62.9656 0.0966048 62.5934 0.0165997 53.0321 0H40.0131Z" fill="url(#paint3_radial_47_6460)"/>
<path d="M40.0017 22C35.1131 22 34.4996 22.0214 32.5796 22.1087C30.6633 22.1964 29.3553 22.4995 28.2108 22.9443C27.0269 23.4037 26.0227 24.0183 25.0222 25.0184C24.0209 26.0182 23.4059 27.0217 22.9446 28.2043C22.4984 29.3484 22.1946 30.6558 22.1084 32.5699C22.0225 34.4885 22 35.1019 22 39.9868C22 44.8718 22.0218 45.4829 22.1087 47.4015C22.1969 49.3164 22.5003 50.6234 22.945 51.7671C23.4051 52.9501 24.0201 53.9536 25.021 54.9534C26.0212 55.9539 27.0254 56.5699 28.2086 57.0293C29.3538 57.4741 30.6622 57.7773 32.5781 57.865C34.4981 57.9523 35.1113 57.9737 39.9994 57.9737C44.8884 57.9737 45.5 57.9523 47.42 57.865C49.3363 57.7773 50.6458 57.4741 51.7911 57.0293C52.9746 56.5699 53.9773 55.9539 54.9775 54.9534C55.9787 53.9536 56.5937 52.9501 57.055 51.7675C57.4975 50.6234 57.8013 49.316 57.8913 47.4019C57.9775 45.4833 58 44.8717 58 39.9868C58 35.1019 57.9775 34.4889 57.8913 32.5703C57.8013 30.6554 57.4975 29.3484 57.055 28.2047C56.5937 27.0217 55.9787 26.0182 54.9775 25.0184C53.9762 24.0179 52.9749 23.4033 51.7899 22.9443C50.6424 22.4995 49.3337 22.1964 47.4174 22.1087C45.4974 22.0214 44.8861 22 39.9961 22H40.0017ZM38.3869 25.2414C38.8662 25.2406 39.4009 25.2414 40.0017 25.2414C44.8077 25.2414 45.3774 25.2586 47.2753 25.3448C49.0303 25.425 49.9828 25.718 50.6173 25.9642C51.4573 26.2902 52.0562 26.6799 52.6858 27.3095C53.3158 27.939 53.7058 28.5386 54.0328 29.378C54.2792 30.0112 54.5728 30.9631 54.6527 32.7168C54.739 34.6129 54.7577 35.1825 54.7577 39.9827C54.7577 44.7829 54.739 45.3525 54.6527 47.2486C54.5725 49.0023 54.2792 49.9542 54.0328 50.5874C53.7066 51.4268 53.3158 52.0245 52.6858 52.6537C52.0558 53.2832 51.4577 53.6729 50.6173 53.9989C49.9835 54.2463 49.0303 54.5385 47.2753 54.6187C45.3777 54.7049 44.8077 54.7237 40.0017 54.7237C35.1953 54.7237 34.6256 54.7049 32.7281 54.6187C30.9731 54.5378 30.0206 54.2448 29.3857 53.9986C28.5457 53.6726 27.9457 53.2828 27.3157 52.6533C26.6857 52.0238 26.2957 51.4257 25.9687 50.5859C25.7223 49.9527 25.4287 49.0008 25.3488 47.2471C25.2625 45.351 25.2453 44.7814 25.2453 39.9782C25.2453 35.175 25.2625 34.6084 25.3488 32.7123C25.429 30.9586 25.7223 30.0068 25.9687 29.3727C26.2949 28.5333 26.6857 27.9338 27.3157 27.3042C27.9457 26.6747 28.5457 26.285 29.3857 25.9582C30.0202 25.7109 30.9731 25.4186 32.7281 25.3381C34.3886 25.2631 35.0321 25.2406 38.3869 25.2369L38.3869 25.2414ZM49.61 28.2279C48.4175 28.2279 47.45 29.1936 47.45 30.3856C47.45 31.5772 48.4175 32.544 49.61 32.544C50.8025 32.544 51.7701 31.5772 51.7701 30.3856C51.7701 29.194 50.8025 28.2272 49.61 28.2272L49.61 28.2279ZM40.0017 30.7498C34.8968 30.7498 30.7578 34.8857 30.7578 39.9868C30.7578 45.088 34.8968 49.2219 40.0017 49.2219C45.1066 49.2219 49.244 45.088 49.244 39.9868C49.244 34.8857 45.1062 30.7498 40.0013 30.7498H40.0017ZM40.0017 33.9912C43.3152 33.9912 46.0018 36.6754 46.0018 39.9868C46.0018 43.2979 43.3152 45.9824 40.0017 45.9824C36.6878 45.9824 34.0016 43.2979 34.0016 39.9868C34.0016 36.6754 36.6878 33.9912 40.0017 33.9912Z" fill="white"/>
</g>
<defs>
<radialGradient id="paint0_radial_47_6460" cx="0" cy="0" r="1" gradientUnits="userSpaceOnUse" gradientTransform="translate(77.4168 37.497) rotate(164.25) scale(51.1155 36.8262)">
<stop stop-color="#FF005F"/>
<stop offset="1" stop-color="#FC01D8"/>
</radialGradient>
<radialGradient id="paint1_radial_47_6460" cx="0" cy="0" r="1" gradientUnits="userSpaceOnUse" gradientTransform="translate(21.2494 86.1616) rotate(-90) scale(63.8575 67.7515)">
<stop stop-color="#FFCC00"/>
<stop offset="0.1242" stop-color="#FFCC00"/>
<stop offset="0.5672" stop-color="#FE4A05"/>
<stop offset="0.6942" stop-color="#FF0F3F"/>
<stop offset="1" stop-color="#FE0657" stop-opacity="0"/>
</radialGradient>
<radialGradient id="paint2_radial_47_6460" cx="0" cy="0" r="1" gradientUnits="userSpaceOnUse" gradientTransform="translate(42.0216 78.8718) rotate(-59.8703) scale(26.4056 34.3772)">
<stop stop-color="#FFCC00"/>
<stop offset="1" stop-color="#FFCC00" stop-opacity="0"/>
</radialGradient>
<radialGradient id="paint3_radial_47_6460" cx="0" cy="0" r="1" gradientUnits="userSpaceOnUse" gradientTransform="translate(10.8543 3.25758) rotate(164.274) scale(50.5485 17.2218)">
<stop stop-color="#780CFF"/>
<stop offset="1" stop-color="#820BFF" stop-opacity="0"/>
</radialGradient>
<clipPath id="clip0_47_6460">
<rect width="80" height="80" rx="40" fill="white"/>
</clipPath>
</defs>
</svg>
