<svg width="80" height="80" viewBox="0 0 80 80" fill="none" xmlns="http://www.w3.org/2000/svg">
<g clip-path="url(#clip0_47_6469)">
<path d="M80 40C80 62.0914 62.0914 80 40 80C17.9086 80 0 62.0914 0 40C0 17.9086 17.9086 0 40 0C62.0914 0 80 17.9086 80 40Z" fill="#0077C0"/>
<path fill-rule="evenodd" clip-rule="evenodd" d="M80 40C80 62.0914 62.0914 80 40 80C17.9086 80 0 62.0914 0 40C0 17.9086 17.9086 0 40 0C62.0914 0 80 17.9086 80 40ZM40 78.3333C61.1709 78.3333 78.3333 61.1709 78.3333 40C78.3333 18.8291 61.1709 1.66667 40 1.66667C18.8291 1.66667 1.66667 18.8291 1.66667 40C1.66667 61.1709 18.8291 78.3333 40 78.3333Z" fill="white" fill-opacity="0.12"/>
<path fill-rule="evenodd" clip-rule="evenodd" d="M48.3805 23.949C57.1519 23.949 64.3075 31.1046 64.3075 39.876C64.3075 43.1845 63.3073 46.2622 61.6146 48.8013L64.0767 51.2635C65.3078 52.4176 65.3078 54.4181 64.0767 55.6492C62.8456 56.8802 60.9221 56.8802 59.691 55.6492L57.2289 53.187C54.6898 54.8797 51.6121 55.88 48.3805 55.88C39.5322 55.88 32.3766 48.7244 32.3766 39.876C32.3766 31.1046 39.5322 23.949 48.3805 23.949ZM48.3805 30.2583C53.6895 30.2583 57.9983 34.567 57.9983 39.876C57.9983 41.4149 57.6905 42.8768 56.998 44.1848L55.9978 43.1845C54.8437 41.9535 52.8432 41.9535 51.6121 43.1845C50.381 44.3387 50.381 46.3392 51.6121 47.5702L52.6123 48.5705C51.3043 49.186 49.8424 49.5707 48.3805 49.5707C42.9946 49.5707 38.6858 45.262 38.6858 39.876C38.6858 34.567 42.9946 30.2583 48.3805 30.2583Z" fill="white"/>
<path d="M23.8957 33.336V54.1873C23.8957 55.4183 24.3574 55.88 25.6654 55.88H28.5122C29.7433 55.88 30.205 55.4183 30.205 54.1873V33.336C30.205 32.0279 29.7433 31.5663 28.5122 31.5663H25.6654C24.3574 31.5663 23.8957 32.0279 23.8957 33.336Z" fill="white"/>
<path d="M15.2536 33.336V54.1873C15.2536 55.4183 15.7152 55.88 17.0232 55.88H19.8701C21.1012 55.88 21.5628 55.4183 21.5628 54.1873V33.336C21.5628 32.0279 21.1012 31.5663 19.8701 31.5663H17.0232C15.7152 31.5663 15.2536 32.0279 15.2536 33.336Z" fill="white"/>
<path d="M30.5558 26.7903C30.5558 28.6995 29.0082 30.2472 27.099 30.2472C25.1898 30.2472 23.6421 28.6995 23.6421 26.7903C23.6421 24.8812 25.1898 23.3335 27.099 23.3335C29.0082 23.3335 30.5558 24.8812 30.5558 26.7903Z" fill="white"/>
<path d="M21.9137 26.7903C21.9137 28.6995 20.366 30.2472 18.4569 30.2472C16.5477 30.2472 15 28.6995 15 26.7903C15 24.8812 16.5477 23.3335 18.4569 23.3335C20.366 23.3335 21.9137 24.8812 21.9137 26.7903Z" fill="white"/>
</g>
<defs>
<clipPath id="clip0_47_6469">
<rect width="80" height="80" fill="white"/>
</clipPath>
</defs>
</svg>
