<svg width="80" height="80" viewBox="0 0 80 80" fill="none" xmlns="http://www.w3.org/2000/svg">
<g clip-path="url(#clip0_47_6566)">
<path d="M80 40C80 62.0914 62.0914 80 40 80C17.9086 80 0 62.0914 0 40C0 17.9086 17.9086 0 40 0C62.0914 0 80 17.9086 80 40Z" fill="#FFA119"/>
<path fill-rule="evenodd" clip-rule="evenodd" d="M80 40C80 62.0914 62.0914 80 40 80C17.9086 80 0 62.0914 0 40C0 17.9086 17.9086 0 40 0C62.0914 0 80 17.9086 80 40ZM40 78.3333C61.1709 78.3333 78.3333 61.1709 78.3333 40C78.3333 18.8291 61.1709 1.66667 40 1.66667C18.8291 1.66667 1.66667 18.8291 1.66667 40C1.66667 61.1709 18.8291 78.3333 40 78.3333Z" fill="black" fill-opacity="0.12"/>
<path d="M39.988 25.1225C39.988 32.3605 43.5353 38.7699 48.9853 42.7046C40.6701 46.228 34.1258 53.1185 31.06 61.6668H28.4383C22.8574 61.6668 18.333 57.1398 18.333 51.5559V28.4445C18.333 22.8605 22.8574 18.3335 28.4388 18.3335H41.0722C40.3685 20.469 39.988 22.7513 39.988 25.1225Z" fill="#FFCA70"/>
<path d="M48.2599 18.3335H51.5536C57.1389 18.3335 61.6664 22.8605 61.6664 28.4445V40.1445C53.3684 40.1445 46.6418 33.4187 46.6418 25.1221C46.6418 22.6794 47.2251 20.3723 48.2599 18.3335Z" fill="white"/>
<path d="M61.6662 46.7891V51.5558C61.6662 57.1402 57.1388 61.6668 51.5535 61.6668H38.2463C42.3755 52.8757 51.31 46.7891 61.6662 46.7891Z" fill="white"/>
</g>
<defs>
<clipPath id="clip0_47_6566">
<rect width="80" height="80" fill="white"/>
</clipPath>
</defs>
</svg>
