<svg width="80" height="80" viewBox="0 0 80 80" fill="none" xmlns="http://www.w3.org/2000/svg">
<g clip-path="url(#clip0_47_6391)">
<path d="M80 40C80 62.0914 62.0914 80 40 80C17.9086 80 0 62.0914 0 40C0 17.9086 17.9086 0 40 0C62.0914 0 80 17.9086 80 40Z" fill="white"/>
<path fill-rule="evenodd" clip-rule="evenodd" d="M80 40C80 62.0914 62.0914 80 40 80C17.9086 80 0 62.0914 0 40C0 17.9086 17.9086 0 40 0C62.0914 0 80 17.9086 80 40ZM40 78.3333C61.1709 78.3333 78.3333 61.1709 78.3333 40C78.3333 18.8291 61.1709 1.66667 40 1.66667C18.8291 1.66667 1.66667 18.8291 1.66667 40C1.66667 61.1709 18.8291 78.3333 40 78.3333Z" fill="black" fill-opacity="0.12"/>
<path d="M16.667 16.6665H38.3337V38.3332H16.667V16.6665Z" fill="#F35325"/>
<path d="M41.667 16.6665H63.3337V38.3332H41.667V16.6665Z" fill="#81BC06"/>
<path d="M16.667 41.6665H38.3337V63.3332H16.667V41.6665Z" fill="#05A6F0"/>
<path d="M41.667 41.6665H63.3337V63.3332H41.667V41.6665Z" fill="#FFBA08"/>
</g>
<defs>
<clipPath id="clip0_47_6391">
<rect width="80" height="80" fill="white"/>
</clipPath>
</defs>
</svg>
