<svg width="80" height="80" viewBox="0 0 80 80" fill="none" xmlns="http://www.w3.org/2000/svg">
<g clip-path="url(#clip0_47_6384)">
<path d="M40 80C62.0914 80 80 62.0914 80 40C80 17.9086 62.0914 0 40 0C17.9086 0 0 17.9086 0 40C0 62.0914 17.9086 80 40 80Z" fill="#E60023"/>
<path fill-rule="evenodd" clip-rule="evenodd" d="M28.691 76.6379C28.9175 76.2688 29.1554 75.8896 29.3991 75.5009C30.8767 73.1449 32.5719 70.4421 33.299 67.5449C33.7822 65.6811 35.7474 58.0953 35.7474 58.0953C37.0039 60.5803 40.741 62.6729 44.7036 62.6729C56.4948 62.6729 65 51.6539 65 37.9536C65 24.8092 54.433 15 40.8699 15C23.9562 15 15 26.5095 15 39.0326C15 44.8855 18.0606 52.1116 22.9575 54.4332C23.6985 54.7928 24.1173 54.6293 24.2784 53.91C24.3319 53.6792 24.4798 53.0763 24.6553 52.3612C24.9024 51.3541 25.2042 50.1243 25.3737 49.3977C25.4704 49.0054 25.4382 48.6457 25.116 48.2533C23.5052 46.2588 22.2165 42.5967 22.2165 39.1961C22.2165 30.4332 28.7565 21.9646 39.9034 21.9646C49.5361 21.9646 56.2693 28.6021 56.2693 38.1171C56.2693 48.8419 50.9214 56.2969 43.9626 56.2969C40.1289 56.2969 37.2294 53.0599 38.1637 49.1035C38.5651 47.4156 39.0931 45.6821 39.6067 43.996C40.5357 40.946 41.4175 38.0509 41.4175 35.861C41.4175 32.8201 39.8067 30.2697 36.4562 30.2697C32.5258 30.2697 29.3686 34.3896 29.3686 39.9155C29.3686 43.4141 30.5284 45.801 30.5284 45.801C30.5284 45.801 26.6624 62.444 25.9536 65.5503C25.1937 68.9245 25.5852 72.5669 25.9353 75.6709C26.8376 76.027 27.7567 76.3498 28.691 76.6379Z" fill="white"/>
</g>
<defs>
<clipPath id="clip0_47_6384">
<rect width="80" height="80" fill="white"/>
</clipPath>
</defs>
</svg>
