<svg width="80" height="80" viewBox="0 0 80 80" fill="none" xmlns="http://www.w3.org/2000/svg">
<g clip-path="url(#clip0_47_6471)">
<path fill-rule="evenodd" clip-rule="evenodd" d="M40 80C62.0914 80 80 62.0914 80 40C80 17.9086 62.0914 0 40 0C17.9086 0 0 17.9086 0 40C0 62.0914 17.9086 80 40 80Z" fill="#CF0A2C"/>
<path fill-rule="evenodd" clip-rule="evenodd" d="M80 40C80 62.0914 62.0914 80 40 80C17.9086 80 0 62.0914 0 40C0 17.9086 17.9086 0 40 0C62.0914 0 80 17.9086 80 40ZM78.3333 40C78.3333 61.1709 61.1709 78.3333 40 78.3333C18.8291 78.3333 1.66667 61.1709 1.66667 40C1.66667 18.8291 18.8291 1.66667 40 1.66667C61.1709 1.66667 78.3333 18.8291 78.3333 40Z" fill="white" fill-opacity="0.12"/>
<path d="M40.0004 47.3415C43.8303 47.3415 46.9595 44.2153 46.9595 40.3853C46.9595 36.5554 43.8303 33.4263 40.0004 33.4263C36.1704 33.4263 33.0442 36.5554 33.0442 40.3853C33.0442 44.2153 36.1704 47.3415 40.0004 47.3415ZM40.0004 37.1079C41.8674 37.1079 43.3302 38.6201 43.3302 40.4347C43.3796 42.2494 41.8674 43.7616 40.0004 43.7616C38.1363 43.7616 36.6736 42.2494 36.6736 40.4347C36.6736 38.5707 38.1858 37.1079 40.0004 37.1079Z" fill="white"/>
<path d="M28.9181 40.3841C28.9181 36.5541 25.789 33.4279 21.9591 33.4279C18.1291 33.4279 15 36.5541 15 40.3841C15 44.2169 18.1291 47.3402 21.9591 47.3402C25.789 47.3402 28.9181 44.2169 28.9181 40.3841ZM21.959 46.1829C18.7339 46.1829 16.1632 43.5598 16.1632 40.3842C16.1632 37.2085 18.7339 34.5884 21.959 34.5884C25.1841 34.5884 27.7548 37.2085 27.7548 40.3842C27.7548 43.5598 25.1841 46.1829 21.959 46.1829Z" fill="white"/>
<path d="M65.001 40.3853C65.001 44.2153 61.8748 47.3415 58.0449 47.3415C54.2149 47.3415 51.0858 44.2153 51.0858 40.3853C51.0858 36.5554 54.2149 33.4263 58.0449 33.4263C61.8748 33.4263 65.001 36.5554 65.001 40.3853Z" fill="white"/>
</g>
<defs>
<clipPath id="clip0_47_6471">
<rect width="80" height="80" fill="white"/>
</clipPath>
</defs>
</svg>
