<svg width="80" height="80" viewBox="0 0 80 80" fill="none" xmlns="http://www.w3.org/2000/svg">
<g clip-path="url(#clip0_47_6473)">
<path d="M80 40C80 62.0914 62.0914 80 40 80C17.9086 80 0 62.0914 0 40C0 17.9086 17.9086 0 40 0C62.0914 0 80 17.9086 80 40Z" fill="white"/>
<path fill-rule="evenodd" clip-rule="evenodd" d="M80 40C80 62.0914 62.0914 80 40 80C17.9086 80 0 62.0914 0 40C0 17.9086 17.9086 0 40 0C62.0914 0 80 17.9086 80 40ZM40 78.3333C61.1709 78.3333 78.3333 61.1709 78.3333 40C78.3333 18.8291 61.1709 1.66667 40 1.66667C18.8291 1.66667 1.66667 18.8291 1.66667 40C1.66667 61.1709 18.8291 78.3333 40 78.3333Z" fill="black" fill-opacity="0.12"/>
<path d="M35.8458 26.7812C36.6631 25.9208 37.6471 25.2358 38.7377 24.768C39.8284 24.3002 41.0028 24.0595 42.1896 24.0604C45.4396 24.0604 48.3437 25.9354 49.8771 28.6542C51.1896 28.0292 52.6896 27.7167 54.2521 27.7167C60.1896 27.7167 65 32.5917 65 38.5917C65 44.5917 60.1875 49.4667 54.2167 49.4667C53.4979 49.4667 52.7792 49.375 52.0917 49.25C51.4171 50.4829 50.4224 51.511 49.2124 52.226C48.0025 52.941 46.6221 53.3163 45.2167 53.3125C43.9667 53.3125 42.8104 53 41.7792 52.5312C41.0884 54.1548 39.9349 55.5392 38.4627 56.5117C36.9904 57.4842 35.2645 58.0018 33.5 58C31.6607 58.0048 29.8645 57.4437 28.3551 56.3927C26.8456 55.3417 25.6961 53.8517 25.0625 52.125C24.5 52.2542 23.9375 52.2833 23.3438 52.2833C18.7521 52.2833 15 48.5333 15 43.8458C15 40.7208 16.6896 38.0021 19.1875 36.5333C18.6562 35.3458 18.375 34.0333 18.375 32.6875C18.375 27.3125 22.75 23 28.0625 23C31.25 23 34 24.4688 35.8125 26.75" fill="#00A1E0"/>
</g>
<defs>
<clipPath id="clip0_47_6473">
<rect width="80" height="80" fill="white"/>
</clipPath>
</defs>
</svg>
