<svg width="80" height="80" viewBox="0 0 80 80" fill="none" xmlns="http://www.w3.org/2000/svg">
<g clip-path="url(#clip0_47_6470)">
<path d="M80 40C80 62.0914 62.0914 80 40 80C17.9086 80 0 62.0914 0 40C0 17.9086 17.9086 0 40 0C62.0914 0 80 17.9086 80 40Z" fill="white"/>
<path fill-rule="evenodd" clip-rule="evenodd" d="M80 40C80 62.0914 62.0914 80 40 80C17.9086 80 0 62.0914 0 40C0 17.9086 17.9086 0 40 0C62.0914 0 80 17.9086 80 40ZM40 78.3333C61.1709 78.3333 78.3333 61.1709 78.3333 40C78.3333 18.8291 61.1709 1.66667 40 1.66667C18.8291 1.66667 1.66667 18.8291 1.66667 40C1.66667 61.1709 18.8291 78.3333 40 78.3333Z" fill="black" fill-opacity="0.12"/>
<path d="M23.1415 46.8034C23.1415 52.3826 27.5893 56.7801 32.9587 56.7801C38.4476 56.7801 42.776 52.26 42.776 46.8034C42.776 41.225 38.3278 36.8266 32.9587 36.8266C27.4691 36.7049 23.1415 41.2246 23.1415 46.8034ZM18.333 46.8034C18.333 38.5781 24.8645 31.9401 32.9587 31.9401C41.0522 31.9401 47.5845 38.5781 47.5845 46.8034C47.5845 55.0295 41.0522 61.6667 32.9587 61.6667C24.8645 61.6667 18.333 55.0698 18.333 46.8034ZM39.6906 23.4704L38.4476 27.7873C44.2578 29.5383 48.9461 33.8141 51.15 39.3925L55.278 38.008C52.5132 30.8817 46.7831 25.5472 39.6906 23.4704ZM40.7332 19.5201C49.0679 21.9633 55.9191 28.357 59.0054 36.5823L63.333 35.1978C59.8068 25.4247 51.9129 18.0142 42.0956 15L40.7332 19.5201Z" fill="#4CBBEB"/>
</g>
<defs>
<clipPath id="clip0_47_6470">
<rect width="80" height="80" fill="white"/>
</clipPath>
</defs>
</svg>
