<svg width="80" height="80" viewBox="0 0 80 80" fill="none" xmlns="http://www.w3.org/2000/svg">
<g clip-path="url(#clip0_47_6375)">
<circle cx="40" cy="40" r="40" fill="#FFFC00"/>
<circle cx="40" cy="40" r="38.3333" stroke="black" stroke-opacity="0.12" stroke-width="3.33333"/>
<path fill-rule="evenodd" clip-rule="evenodd" d="M80 40C80 62.0914 62.0914 80 40 80C17.9086 80 0 62.0914 0 40C0 17.9086 17.9086 0 40 0C62.0914 0 80 17.9086 80 40ZM40 78.3333C61.1709 78.3333 78.3333 61.1709 78.3333 40C78.3333 18.8291 61.1709 1.66667 40 1.66667C18.8291 1.66667 1.66667 18.8291 1.66667 40C1.66667 61.1709 18.8291 78.3333 40 78.3333Z" fill="black" fill-opacity="0.12"/>
<path d="M61.4525 51.4581C53.7097 47.71 52.4757 41.923 52.4207 41.4937C52.3543 40.9738 52.2789 40.565 52.8525 40.0361C53.4057 39.5251 55.8597 38.0062 56.5406 37.531C57.6661 36.744 58.1617 35.9584 57.7964 34.9926C57.5409 34.3245 56.9187 34.0728 56.2634 34.0728C56.0567 34.0735 55.8506 34.0966 55.6489 34.1418C54.4123 34.4101 53.2115 35.0297 52.5165 35.197C52.433 35.2185 52.3473 35.2301 52.261 35.2315C51.8906 35.2315 51.75 35.0667 51.7858 34.6209C51.8727 33.2693 52.0566 30.6313 51.8433 28.167C51.5508 24.7766 50.4572 23.0967 49.1606 21.611C48.5333 20.8905 45.6207 17.7951 39.9998 17.7951C34.3788 17.7951 31.47 20.8905 30.8466 21.602C29.5461 23.0877 28.4539 24.7676 28.1639 28.1581C27.9505 30.6223 28.1422 33.2591 28.2214 34.6119C28.2469 35.036 28.1166 35.2226 27.7461 35.2226C27.6599 35.2211 27.5742 35.2095 27.4906 35.1881C26.797 35.0207 25.5961 34.4011 24.3595 34.1329C24.1578 34.0876 23.9518 34.0645 23.7451 34.0639C23.0872 34.0639 22.4676 34.3194 22.2121 34.9837C21.8467 35.9494 22.3398 36.7351 23.4691 37.522C24.15 37.9973 26.6041 39.5149 27.1572 40.0272C27.7295 40.5561 27.6554 40.9648 27.589 41.4848C27.5341 41.9204 26.2987 47.7074 18.5572 51.4491C18.1037 51.6689 17.3321 52.1339 18.6926 52.885C20.8286 54.0654 22.2504 53.939 23.3554 54.6505C24.2931 55.2548 23.7387 56.5578 24.4208 57.0279C25.2589 57.6066 27.7359 56.987 30.936 58.0435C33.6187 58.9275 35.2488 61.425 40.0061 61.425C44.7635 61.425 46.4408 58.916 49.0763 58.0435C52.27 56.987 54.7521 57.6066 55.5914 57.0279C56.2723 56.5578 55.7192 55.2548 56.6569 54.6505C57.7619 53.939 59.1824 54.0654 61.3197 52.885C62.6776 52.1428 61.906 51.6778 61.4525 51.4581Z" fill="white"/>
<path d="M64.8212 51.0174C64.4738 50.072 63.812 49.5661 63.0583 49.1471C62.9165 49.0641 62.7862 48.9977 62.6751 48.9466C62.4502 48.8303 62.2203 48.7179 61.9916 48.5991C59.6423 47.3535 57.8079 45.7822 56.5355 43.9197C56.1742 43.3953 55.8608 42.8395 55.5991 42.2589C55.4905 41.9485 55.4956 41.7722 55.5735 41.6112C55.6508 41.4872 55.7531 41.3807 55.8738 41.2983C56.2774 41.0313 56.6939 40.7604 56.9762 40.5778C57.4796 40.252 57.8781 39.994 58.1349 39.8113C59.0994 39.1368 59.7739 38.4201 60.1955 37.6191C60.4896 37.0657 60.6611 36.4555 60.6984 35.8299C60.7356 35.2043 60.6378 34.578 60.4114 33.9936C59.7726 32.3124 58.1847 31.2687 56.2608 31.2687C55.855 31.2684 55.4503 31.3112 55.0536 31.3965C54.9476 31.4195 54.8416 31.4438 54.7381 31.4706C54.756 30.3209 54.7304 29.1072 54.6282 27.9128C54.2654 23.7137 52.795 21.5126 51.262 19.7573C50.2804 18.6574 49.1241 17.7269 47.8397 17.0031C45.5134 15.6745 42.8754 15 39.9997 15C37.1241 15 34.4989 15.6745 32.1701 17.0031C30.8825 17.7271 29.7239 18.6595 28.7413 19.7625C27.2083 21.5177 25.7379 23.7227 25.3751 27.9179C25.2729 29.1124 25.2474 30.3324 25.264 31.4757C25.1605 31.4489 25.0558 31.4246 24.9497 31.4016C24.553 31.3163 24.1483 31.2735 23.7425 31.2739C21.8173 31.2739 20.2269 32.3176 19.5907 33.9987C19.3633 34.5834 19.2644 35.2101 19.3008 35.8363C19.3371 36.4626 19.5079 37.0737 19.8015 37.6281C20.2243 38.429 20.8988 39.1457 21.8633 39.8202C22.1188 39.9991 22.5187 40.2571 23.022 40.5867C23.2941 40.763 23.6914 41.0211 24.081 41.2791C24.2174 41.3672 24.3332 41.4835 24.4208 41.6202C24.5026 41.7875 24.5052 41.9677 24.3838 42.2998C24.1257 42.8682 23.8174 43.4124 23.4627 43.926C22.2185 45.7465 20.4376 47.2897 18.1637 48.525C16.9591 49.1637 15.7071 49.5904 15.1783 51.0276C14.7797 52.1122 15.0403 53.3462 16.0533 54.3861C16.4251 54.7742 16.8564 55.1006 17.3308 55.3531C18.318 55.8957 19.3678 56.3157 20.4568 56.6038C20.6815 56.6618 20.8949 56.7572 21.0879 56.8861C21.4571 57.2093 21.4047 57.696 21.8965 58.4089C22.1434 58.7773 22.4571 59.0962 22.8214 59.3491C23.8536 60.0619 25.0136 60.1066 26.2425 60.1539C27.3527 60.1961 28.611 60.2446 30.0482 60.7186C30.6435 60.9153 31.2618 61.296 31.9784 61.7405C33.6992 62.7983 36.0549 64.2457 39.9972 64.2457C43.9395 64.2457 46.3118 62.7906 48.0453 61.729C48.7569 61.2921 49.3714 60.9153 49.9501 60.7237C51.3872 60.2484 52.6456 60.2012 53.7557 60.159C54.9846 60.1118 56.1446 60.067 57.1768 59.3542C57.6082 59.0534 57.9677 58.6607 58.2294 58.2045C58.5833 57.6028 58.5744 57.1825 58.9065 56.8887C59.0876 56.7659 59.2879 56.6744 59.4993 56.6178C60.6031 56.3288 61.6672 55.9049 62.6674 55.3557C63.1715 55.0853 63.6252 54.73 64.0088 54.3056L64.0215 54.2903C64.972 53.2734 65.2109 52.0751 64.8212 51.0174ZM61.3171 52.9004C59.1799 54.0808 57.7593 53.9543 56.6543 54.6658C55.7153 55.2701 56.2711 56.5731 55.5889 57.0432C54.7508 57.6219 52.2738 57.0024 49.0737 58.0588C46.4344 58.9314 44.7507 61.4403 40.0036 61.4403C35.2565 61.4403 33.6123 58.9365 30.9296 58.0525C27.7359 56.996 25.2538 57.6156 24.4145 57.0369C23.7336 56.5667 24.2867 55.2637 23.349 54.6595C22.2427 53.9479 20.8222 54.0744 18.6862 52.9004C17.3257 52.1492 18.0973 51.6842 18.5508 51.4645C26.2924 47.7163 27.5277 41.9293 27.5826 41.5001C27.649 40.9802 27.7231 40.5714 27.1508 40.0425C26.5977 39.5315 24.1436 38.0126 23.4627 37.5374C22.336 36.7504 21.8403 35.9648 22.2057 34.999C22.4612 34.3309 23.0846 34.0792 23.7387 34.0792C23.9454 34.0798 24.1514 34.103 24.3531 34.1482C25.5897 34.4165 26.7906 35.036 27.4842 35.2034C27.5678 35.2248 27.6535 35.2364 27.7397 35.2379C28.1102 35.2379 28.2405 35.0514 28.215 34.6273C28.1358 33.2744 27.9441 30.6377 28.1575 28.1734C28.45 24.783 29.5423 23.1031 30.8402 21.6174C31.4636 20.9032 34.3929 17.8079 39.9946 17.8079C45.5964 17.8079 48.5333 20.8905 49.1567 21.602C50.4559 23.0877 51.5495 24.7676 51.8395 28.1581C52.0528 30.6223 51.8688 33.2603 51.782 34.6119C51.7526 35.0578 51.8867 35.2226 52.2572 35.2226C52.3434 35.2212 52.4292 35.2096 52.5127 35.1881C53.2077 35.0207 54.4085 34.4011 55.6451 34.1329C55.8468 34.0876 56.0528 34.0645 56.2596 34.0639C56.9175 34.0639 57.537 34.3194 57.7925 34.9837C58.1579 35.9494 57.6648 36.7351 56.5368 37.522C55.8559 37.9972 53.4018 39.5149 52.8487 40.0272C52.2751 40.556 52.3505 40.9648 52.4169 41.4848C52.4718 41.9204 53.7059 47.7074 61.4487 51.4491C61.906 51.6778 62.6776 52.1428 61.3171 52.9004Z" fill="black"/>
</g>
<defs>
<clipPath id="clip0_47_6375">
<rect width="80" height="80" fill="white"/>
</clipPath>
</defs>
</svg>
